<?xml version="1.0" encoding="UTF-8" standalone="no"?>
<!-- Created with Inkscape (http://www.inkscape.org/) -->

<svg
   xmlns:dc="http://purl.org/dc/elements/1.1/"
   xmlns:cc="http://creativecommons.org/ns#"
   xmlns:rdf="http://www.w3.org/1999/02/22-rdf-syntax-ns#"
   xmlns:svg="http://www.w3.org/2000/svg"
   xmlns="http://www.w3.org/2000/svg"
   xmlns:sodipodi="http://sodipodi.sourceforge.net/DTD/sodipodi-0.dtd"
   xmlns:inkscape="http://www.inkscape.org/namespaces/inkscape"
   version="1.0"
   width="460"
   height="460"
   id="svg1920"
   sodipodi:docname="ship.svg"
   inkscape:version="0.92.4 5da689c313, 2019-01-14">
  <metadata
     id="metadata243">
    <rdf:RDF>
      <cc:Work
         rdf:about="">
        <dc:format>image/svg+xml</dc:format>
        <dc:type
           rdf:resource="http://purl.org/dc/dcmitype/StillImage" />
        <dc:title></dc:title>
      </cc:Work>
    </rdf:RDF>
  </metadata>
  <sodipodi:namedview
     pagecolor="#ffffff"
     bordercolor="#666666"
     borderopacity="1"
     objecttolerance="10"
     gridtolerance="10"
     guidetolerance="10"
     inkscape:pageopacity="0"
     inkscape:pageshadow="2"
     inkscape:window-width="1916"
     inkscape:window-height="987"
     id="namedview241"
     showgrid="false"
     fit-margin-top="0"
     fit-margin-left="0"
     fit-margin-right="0"
     fit-margin-bottom="0"
     inkscape:zoom="0.50971922"
     inkscape:cx="-57.345369"
     inkscape:cy="226.27188"
     inkscape:window-x="0"
     inkscape:window-y="72"
     inkscape:window-maximized="0"
     inkscape:current-layer="svg1920" />
  <defs
     id="defs1923" />
  <path
     d="m 12.751075,434.33912 v -22.31861 l 4.711705,-0.0243 c 7.40569,-0.0381 12.878151,-1.65009 23.558527,-6.93946 18.718901,-9.27038 30.238216,-8.73881 55.052556,2.54051 19.172737,8.71493 33.331767,8.20051 55.642987,-2.0216 18.35934,-8.41151 27.36324,-8.23514 50.49438,0.98914 23.71276,9.45622 31.83576,9.45622 55.54853,0 23.11564,-9.2181 32.09862,-9.39779 50.49438,-1.01009 22.11614,10.08404 36.53643,10.72218 54.89056,2.42908 25.5353,-11.53784 37.17427,-12.2311 55.28863,-3.29323 10.97178,5.41362 17.31112,7.30172 24.57084,7.31813 l 5.20767,0.0118 v 22.31861 22.3186 h -4.41489 c -7.43112,0 -14.53638,-1.9529 -23.43122,-6.44014 -11.12398,-5.61177 -17.58685,-7.44959 -26.14656,-7.43522 -8.6443,0.0145 -14.43563,1.51183 -26.01641,6.72636 -12.04907,5.42541 -19.2364,7.149 -29.81118,7.149 -10.47162,0 -15.80825,-1.41443 -30.04299,-7.96264 -13.9575,-6.42068 -20.33363,-7.60873 -30.1221,-5.61258 -4.11762,0.83971 -11.85783,3.40594 -17.20046,5.70273 -13.39941,5.76043 -19.11564,7.12312 -30.0486,7.16332 -11.03089,0.0405 -17.79163,-1.52854 -31.11776,-7.22209 -20.64356,-8.81989 -29.58215,-8.8216 -48.2267,-0.009 -13.61936,6.4372 -19.18823,7.91769 -29.76872,7.91406 -10.66902,-0.004 -18.35788,-1.81982 -29.423478,-6.95008 -11.184963,-5.1856 -17.837108,-6.91061 -26.649385,-6.91061 -8.590223,0 -15.151317,1.86143 -26.303934,7.46261 -8.21518,4.1259 -16.604138,6.42452 -23.446774,6.42452 h -3.289604 z m -0.991938,-64.47597 c 0,-20.81213 0.04887,-21.32667 2.025696,-21.32667 5.509958,0 18.310679,-3.55805 26.740504,-7.43271 12.453027,-5.72387 16.721068,-6.78985 26.782325,-6.68916 8.93011,0.0894 11.26287,0.67678 27.774264,6.99374 5.728444,2.19159 11.977654,4.13403 13.887134,4.3165 l 3.47178,0.33179 0.2574,-48.97275 0.25741,-48.97275 -16.589324,-38.28663 C 81.702735,175.98226 79.785656,170.94057 79.851402,166.3923 c 0.085,-5.88059 2.738175,-11.01477 7.41184,-14.34271 1.624021,-1.1564 7.730162,-4.02311 13.569218,-6.37045 l 10.61644,-4.2679 0.26212,-30.84497 0.26211,-30.844983 h 17.84076 17.84075 V 63.354311 46.987334 h 25.29442 25.29442 V 25.164699 3.3420634 h 31.74201 31.74202 V 25.164699 46.987334 h 25.29442 25.29441 v 16.366977 16.366976 h 18.33672 18.33673 l 0.26211,30.908303 0.26212,30.9083 11.31657,4.77632 c 12.27718,5.18175 15.09939,7.23176 18.15152,13.18503 3.41858,6.66802 2.46029,9.87988 -14.91676,49.99552 l -16.03924,37.02726 v 50.0941 50.09411 l 3.2238,-0.6816 c 3.48908,-0.73768 8.03619,-2.34119 22.44967,-7.91669 16.35164,-6.32524 27.55493,-5.81968 44.75413,2.01955 10.53066,4.79979 19.58539,7.41305 25.68557,7.41305 h 4.07256 v 21.82264 c 0,24.93696 1.10377,22.75757 -10.30191,20.34116 -3.75657,-0.79587 -11.17564,-3.47833 -16.4868,-5.96105 -11.60195,-5.42335 -22.06868,-7.85962 -29.71637,-6.91689 -7.10089,0.87533 -17.00233,3.96991 -24.01188,7.50462 -8.76127,4.41807 -18.94386,6.85644 -28.57627,6.84302 -10.1032,-0.0141 -15.78557,-1.4102 -27.45747,-6.74613 -13.37447,-6.11428 -18.95677,-7.42482 -29.49424,-6.92433 -7.02583,0.33371 -10.46429,1.04385 -15.4797,3.19703 -19.5296,8.38431 -24.06357,9.76028 -33.72589,10.23512 -11.20914,0.55085 -17.78294,-0.90797 -31.08797,-6.89891 -11.74441,-5.28822 -17.37255,-6.71206 -26.58793,-6.72636 -8.68123,-0.0135 -17.64035,2.40214 -27.71665,7.47317 -8.78366,4.42047 -16.96897,6.40516 -26.34365,6.38752 -10.24415,-0.0193 -18.09951,-1.96726 -30.081675,-7.45968 -9.549694,-4.37742 -20.235723,-7.37028 -26.315618,-7.37028 -6.343225,0 -17.165367,3.12019 -27.20861,7.84465 -9.032091,4.24879 -18.563583,6.95588 -24.620147,6.99249 -0.953729,0.006 -1.239923,-4.91515 -1.239923,-21.31918 z M 184.73204,110.96735 c 24.44453,-10.09297 44.83238,-18.350866 45.30635,-18.350866 0.47398,0 20.9235,8.257896 45.44337,18.350866 24.51987,10.09297 45.07038,18.35085 45.66778,18.35085 0.72903,0 1.08618,-4.07711 1.08618,-12.39922 V 104.51975 H 303.88487 285.53402 V 88.648732 72.777722 H 229.98549 174.43697 V 88.626355 104.475 l -18.10287,0.27036 -18.10287,0.27036 -0.27852,12.15124 c -0.21846,9.53151 0.003,12.15124 1.02812,12.15124 0.71865,0 21.30669,-8.25788 45.75121,-18.35085 z"
     style="fill:#000000"
     id="path1929"
     inkscape:connector-curvature="0" />
</svg>
