<?xml version="1.0" encoding="UTF-8" standalone="no"?>
<svg
   xmlns:dc="http://purl.org/dc/elements/1.1/"
   xmlns:cc="http://creativecommons.org/ns#"
   xmlns:rdf="http://www.w3.org/1999/02/22-rdf-syntax-ns#"
   xmlns:svg="http://www.w3.org/2000/svg"
   xmlns="http://www.w3.org/2000/svg"
   xmlns:sodipodi="http://sodipodi.sourceforge.net/DTD/sodipodi-0.dtd"
   xmlns:inkscape="http://www.inkscape.org/namespaces/inkscape"
   version="1.1"
   x="0px"
   y="0px"
   viewBox="-11.75 -10.014 126 108.985"
   enable-background="new -11.75 -10.014 126 108.985"
   xml:space="preserve"
   id="svg120"
   sodipodi:docname="truck.svg"
   inkscape:version="0.92.4 5da689c313, 2019-01-14"><metadata
     id="metadata126"><rdf:RDF><cc:Work
         rdf:about=""><dc:format>image/svg+xml</dc:format><dc:type
           rdf:resource="http://purl.org/dc/dcmitype/StillImage" /></cc:Work></rdf:RDF></metadata><defs
     id="defs124" /><sodipodi:namedview
     pagecolor="#ffffff"
     bordercolor="#666666"
     borderopacity="1"
     objecttolerance="10"
     gridtolerance="10"
     guidetolerance="10"
     inkscape:pageopacity="0"
     inkscape:pageshadow="2"
     inkscape:window-width="1916"
     inkscape:window-height="1023"
     id="namedview122"
     showgrid="false"
     inkscape:zoom="7.634078"
     inkscape:cx="63"
     inkscape:cy="54.4925"
     inkscape:window-x="0"
     inkscape:window-y="36"
     inkscape:window-maximized="0"
     inkscape:current-layer="svg120" /><path
     d="m 5.5,55.598 h 14.635 c -1.315,1.744 -2.096,3.88 -2.096,6.236 H 8.365 L 5.5,59.843 Z"
     id="path108"
     inkscape:connector-curvature="0" /><path
     d="m 28.462,54.205 c -4.226,0 -7.656,3.425 -7.656,7.63 0,4.232 3.431,7.644 7.656,7.644 4.212,0 7.63,-3.411 7.63,-7.644 0,-4.206 -3.418,-7.63 -7.63,-7.63 z m 0,11.796 c -2.312,0 -4.187,-1.861 -4.187,-4.167 0,-2.292 1.875,-4.153 4.187,-4.153 2.292,0 4.167,1.861 4.167,4.153 0,2.306 -1.875,4.167 -4.167,4.167 z"
     id="path110"
     inkscape:connector-curvature="0" /><path
     d="m 81.76,54.204 c -4.229,0 -7.66,3.43 -7.66,7.63 0,4.23 3.431,7.64 7.66,7.64 4.21,0 7.641,-3.41 7.641,-7.64 -10e-4,-4.2 -3.431,-7.63 -7.641,-7.63 z m 0,11.8 c -2.3,0 -4.18,-1.86 -4.18,-4.17 0,-2.29 1.88,-4.15 4.18,-4.15 2.29,0 4.16,1.86 4.16,4.15 0,2.31 -1.87,4.17 -4.16,4.17 z"
     id="path112"
     inkscape:connector-curvature="0" /><path
     d="M 99.5,40.319 93.961,23.658 85.23,19.478 H 67.81 v 36.12 H 36.77 c 1.31,1.75 2.1,3.88 2.1,6.25 h 32.46 c 0,-5.75 4.67,-10.4 10.43,-10.4 4.04,0 7.53,2.31 9.26,5.69 0.62,1.19 1.021,2.54 1.101,3.98 0.01,0.23 0.05,0.47 0.05,0.73 h 8.329 v -17.37 z m -26.78,0 v -12.5 h 18.461 l 4.16,12.5 z"
     id="path114"
     inkscape:connector-curvature="0" /><polygon
     points="90.681,8.341 94.841,20.841 72.22,20.841 72.22,8.341 "
     id="polygon116"
     transform="translate(0.5,19.478)"
     style="fill:none" /><rect
     x="2"
     y="19.478001"
     width="63"
     height="33.652"
     id="rect118" /></svg>