<?xml version="1.0" standalone="no"?>
<!DOCTYPE svg PUBLIC "-//W3C//DTD SVG 20010904//EN"
 "http://www.w3.org/TR/2001/REC-SVG-20010904/DTD/svg10.dtd">
<svg version="1.0" xmlns="http://www.w3.org/2000/svg"
 width="1280.000000pt" height="958.000000pt" viewBox="0 0 1280.000000 958.000000"
 preserveAspectRatio="xMidYMid meet">
<metadata>
Created by potrace 1.15, written by Peter Selinger 2001-2017
</metadata>
<g transform="translate(0.000000,958.000000) scale(0.100000,-0.100000)"
fill="#000000" stroke="none">
<path d="M2206 9569 c-27 -4 -71 -15 -98 -24 -44 -14 -56 -14 -129 0 -104 19
-287 20 -361 0 -31 -8 -101 -33 -155 -56 -200 -84 -331 -114 -461 -106 -108 6
-174 30 -290 106 -110 72 -149 87 -196 71 -100 -33 -137 -113 -156 -332 -6
-76 -6 -152 0 -219 9 -94 15 -113 62 -214 48 -100 53 -116 53 -180 0 -53 -5
-78 -19 -100 -16 -24 -20 -55 -25 -175 -8 -214 -6 -385 8 -470 46 -290 209
-619 464 -938 108 -134 314 -358 413 -448 l85 -78 -25 -13 c-35 -18 -33 -37
10 -81 20 -20 48 -62 64 -92 38 -77 103 -296 95 -321 -4 -12 -45 -62 -91 -112
-87 -94 -98 -113 -92 -163 2 -24 10 -31 48 -44 86 -28 88 -37 26 -123 -46 -65
-145 -235 -264 -452 -159 -289 -273 -447 -433 -599 -92 -87 -96 -93 -77 -105
47 -29 6 -126 -168 -401 -312 -495 -407 -697 -408 -870 -1 -62 4 -85 26 -129
l26 -53 -39 -56 c-94 -134 -115 -304 -79 -622 26 -224 30 -386 11 -481 -12
-64 -12 -71 13 -144 32 -95 33 -172 5 -273 -20 -72 -20 -76 -4 -150 34 -153
174 -379 257 -413 18 -7 41 -22 51 -32 49 -49 237 22 392 146 239 192 456 580
530 947 15 74 26 98 88 195 117 182 167 319 170 467 1 43 5 71 8 61 4 -10 13
-33 19 -51 15 -39 66 -112 79 -112 5 0 7 23 4 53 -7 67 19 169 53 215 14 18
28 32 30 30 2 -3 10 -55 18 -117 10 -76 24 -131 42 -169 29 -64 24 -69 69 59
14 43 49 110 76 150 28 41 69 102 92 137 40 61 56 66 57 17 1 -51 17 -46 59
19 23 35 48 66 54 69 35 13 75 -29 91 -98 l8 -30 56 60 c87 93 143 240 183
477 7 43 16 78 20 78 3 0 8 -30 11 -67 5 -63 37 -153 56 -153 4 0 18 21 31 46
37 69 157 194 187 194 16 0 24 -6 24 -17 1 -14 9 -9 31 17 65 75 99 168 129
351 20 122 41 211 58 236 14 21 95 -38 119 -85 l20 -41 21 22 c11 12 24 34 27
49 26 102 152 25 277 -167 297 -456 447 -1133 337 -1515 -17 -58 -23 -117 -29
-260 -8 -201 -26 -314 -72 -459 -68 -214 -172 -385 -332 -546 -120 -121 -233
-207 -456 -346 -272 -170 -323 -217 -323 -300 0 -22 2 -42 5 -44 3 -3 50 -8
104 -11 89 -5 107 -9 179 -45 95 -46 209 -69 304 -59 59 6 67 9 98 45 18 21
33 36 33 34 0 -2 -7 -25 -14 -51 l-15 -47 52 -10 c211 -44 494 -61 672 -42
285 31 439 109 509 256 33 70 53 95 76 95 25 0 71 -50 115 -126 l38 -65 23 60
c35 97 64 134 278 346 172 170 207 210 234 265 l31 65 16 -40 c9 -21 19 -54
22 -72 3 -19 12 -33 19 -33 8 0 58 45 113 99 141 143 229 181 412 181 93 0
101 -2 182 -41 134 -64 219 -75 442 -55 233 21 284 20 435 -5 144 -23 266 -27
328 -10 77 22 109 103 182 471 64 319 87 406 138 520 29 63 38 112 57 300 19
191 38 285 71 356 28 59 93 135 100 117 9 -22 45 -63 55 -63 5 0 9 37 9 83 0
45 7 125 15 177 28 185 82 297 203 419 l83 84 27 -26 c15 -14 44 -33 65 -42
56 -23 97 -6 182 75 121 116 146 124 183 60 24 -43 198 -194 213 -184 12 7 11
38 -3 69 -20 44 2 51 62 21 223 -112 453 -366 594 -655 l45 -92 6 38 c16 93
34 120 91 137 18 6 29 -6 77 -87 31 -52 93 -145 137 -208 107 -150 167 -212
153 -160 -5 19 20 51 40 51 25 0 276 -130 364 -188 117 -78 155 -117 239 -250
145 -230 313 -478 337 -501 35 -32 51 -18 73 60 9 34 22 58 28 56 15 -5 52
-111 78 -222 28 -118 30 -279 5 -350 -41 -118 -112 -165 -262 -174 -115 -7
-135 -17 -208 -104 -88 -105 -146 -207 -147 -258 0 -35 33 -63 73 -61 18 1 74
17 125 37 102 39 105 40 99 23 -8 -24 14 -47 56 -59 85 -24 456 -6 597 28 22
6 24 5 11 -10 -37 -45 31 -66 157 -48 46 6 112 22 147 35 57 21 75 35 154 118
106 112 158 175 233 283 194 279 324 581 384 890 23 122 24 354 1 448 -21 84
-21 87 -1 87 25 0 79 36 92 62 21 43 18 48 -38 68 -76 28 -180 101 -246 174
-31 33 -103 123 -161 199 -59 76 -133 165 -165 198 -32 32 -58 61 -58 63 0 2
20 7 44 10 24 4 52 13 62 21 17 14 17 16 3 25 -107 64 -235 193 -316 317 -86
131 -138 256 -243 573 -54 162 -113 333 -132 380 -38 91 -43 127 -68 500 -20
287 -39 436 -75 570 -9 35 -15 104 -15 190 0 313 -62 639 -195 1036 -104 312
-263 659 -390 853 -59 90 -59 101 1 101 18 0 38 8 48 19 17 19 16 21 -52 55
-159 80 -266 181 -509 481 -178 221 -254 289 -513 462 -554 368 -1228 601
-1960 678 -223 23 -682 36 -875 24 -444 -26 -653 -67 -914 -179 -163 -70 -319
-87 -492 -54 -160 30 -486 145 -620 217 -146 80 -315 75 -742 -19 -235 -52
-238 -52 -262 -12 -39 64 -218 128 -357 128 -29 0 -91 -13 -145 -30 -100 -32
-164 -37 -241 -19 -47 11 -187 76 -312 144 -168 91 -443 136 -634 104z m3954
-6614 c129 -260 155 -537 73 -800 -52 -168 -166 -336 -279 -416 l-42 -28 -6
52 c-15 144 -16 244 -2 487 9 146 16 279 17 295 0 24 12 6 61 -90 34 -66 74
-154 89 -195 l26 -74 18 97 c22 120 16 442 -10 577 -13 70 -56 233 -81 307
-17 49 83 -107 136 -212z"/>
</g>
</svg>
