<?xml version="1.0" standalone="no"?>
<!DOCTYPE svg PUBLIC "-//W3C//DTD SVG 20010904//EN"
 "http://www.w3.org/TR/2001/REC-SVG-20010904/DTD/svg10.dtd">
<svg version="1.0" xmlns="http://www.w3.org/2000/svg"
 width="969.000000pt" height="1280.000000pt" viewBox="0 0 969.000000 1280.000000"
 preserveAspectRatio="xMidYMid meet">
<metadata>
Created by potrace 1.15, written by Peter Selinger 2001-2017
</metadata>
<g transform="translate(0.000000,1280.000000) scale(0.100000,-0.100000)"
fill="#000000" stroke="none">
<path d="M9111 12787 c-18 -7 -50 -27 -71 -45 -35 -29 -47 -32 -168 -46 -496
-58 -812 -240 -1006 -579 l-43 -76 -21 37 c-82 147 -228 230 -439 252 -91 10
-93 10 -136 54 -63 63 -138 89 -252 89 -104 0 -184 -23 -278 -80 l-58 -35 -50
47 c-56 52 -184 117 -267 134 -87 18 -204 14 -275 -10 -51 -17 -68 -19 -97
-10 -212 66 -479 23 -648 -104 -57 -43 -103 -97 -147 -170 -10 -16 -15 -15
-70 12 -128 65 -387 137 -585 163 -119 16 -357 14 -463 -5 -258 -45 -456 -174
-554 -361 l-26 -51 -56 14 c-67 15 -245 17 -327 2 -127 -22 -268 -81 -369
-153 -126 -91 -255 -249 -326 -399 -17 -37 -34 -67 -37 -67 -4 0 -36 10 -72
21 -181 57 -476 85 -651 60 -615 -87 -863 -540 -697 -1275 15 -70 19 -101 11
-103 -29 -10 -145 -107 -205 -172 -73 -78 -147 -214 -174 -316 -36 -141 -29
-331 22 -524 l24 -93 -34 -38 c-40 -45 -88 -143 -107 -220 -8 -32 -14 -103
-13 -170 1 -128 20 -204 75 -293 28 -45 31 -59 39 -190 21 -317 30 -605 30
-964 0 -805 -52 -1185 -256 -1861 -36 -119 -92 -310 -125 -423 l-59 -207 0
-736 0 -736 3290 0 3290 0 -2 1147 -3 1148 -107 3 -108 3 -1 1842 c-1 1013 0
1847 1 1852 1 6 2 42 2 81 l0 71 97 6 c189 13 390 72 532 158 105 62 250 209
334 339 38 58 71 108 75 113 3 4 60 16 126 27 435 71 603 220 604 536 0 63 5
82 44 165 96 203 138 394 117 534 -6 41 -17 91 -25 109 l-14 34 65 63 c35 35
87 92 114 126 41 51 57 64 87 69 187 32 357 84 462 142 71 39 179 136 212 191
12 20 41 61 64 91 104 135 150 263 141 390 -7 96 -35 172 -100 262 -42 59 -63
78 -109 101 -68 33 -173 44 -227 24z m-4034 -3648 c56 -21 290 -79 363 -89
169 -25 385 -8 526 40 31 11 63 20 71 20 11 0 13 -304 13 -1825 0 -1004 -2
-1825 -6 -1825 -8 0 -274 158 -541 322 -133 81 -244 148 -247 148 -3 0 -7
-106 -8 -235 l-3 -234 -162 94 c-89 51 -268 157 -397 234 -129 78 -237 141
-240 141 -3 0 -7 -106 -8 -235 l-3 -234 -205 118 c-113 65 -292 171 -399 235
-107 64 -197 116 -200 116 -3 0 -5 -106 -3 -235 l3 -236 -78 3 -78 3 -28 100
c-73 265 -122 538 -153 855 -21 222 -30 885 -15 1195 26 564 32 637 56 670 41
56 79 147 99 236 l6 26 247 6 c432 11 640 52 868 170 149 78 313 217 429 365
27 34 52 62 57 62 4 0 20 -5 36 -11z"/>
<path d="M1235 2819 c-307 -40 -604 -189 -828 -416 -493 -500 -542 -1284 -116
-1843 205 -269 513 -464 841 -530 767 -157 1505 333 1674 1110 27 121 27 429
0 550 -60 279 -191 522 -383 715 -100 101 -175 160 -295 231 -262 154 -589
221 -893 183z"/>
<path d="M4665 2819 c-299 -38 -601 -187 -819 -404 -553 -554 -555 -1444 -4
-1994 207 -208 454 -340 744 -398 123 -24 395 -24 518 0 676 135 1156 713
1156 1392 0 569 -344 1084 -870 1304 -227 95 -484 130 -725 100z"/>
<path d="M8092 2818 c-170 -21 -366 -87 -517 -174 -356 -205 -602 -544 -691
-954 -15 -66 -19 -127 -19 -275 0 -148 4 -209 19 -275 90 -415 336 -751 701
-959 286 -163 642 -219 973 -151 548 111 985 547 1104 1103 17 82 22 136 22
277 1 253 -34 410 -140 625 -266 543 -851 859 -1452 783z"/>
</g>
</svg>
