<?xml version="1.0" encoding="UTF-8" standalone="no"?>
<svg
   xmlns:dc="http://purl.org/dc/elements/1.1/"
   xmlns:cc="http://creativecommons.org/ns#"
   xmlns:rdf="http://www.w3.org/1999/02/22-rdf-syntax-ns#"
   xmlns:svg="http://www.w3.org/2000/svg"
   xmlns="http://www.w3.org/2000/svg"
   xmlns:sodipodi="http://sodipodi.sourceforge.net/DTD/sodipodi-0.dtd"
   xmlns:inkscape="http://www.inkscape.org/namespaces/inkscape"
   version="1.0"
   viewBox="0 0 970 970"
   preserveAspectRatio="xMidYMid meet"
   id="svg3858"
   sodipodi:docname="coalpowerplant.svg"
   inkscape:version="0.92.4 5da689c313, 2019-01-14"
   width="970"
   height="970">
  <defs
     id="defs3862" />
  <sodipodi:namedview
     pagecolor="#ffffff"
     bordercolor="#666666"
     borderopacity="1"
     objecttolerance="10"
     gridtolerance="10"
     guidetolerance="10"
     inkscape:pageopacity="0"
     inkscape:pageshadow="2"
     inkscape:window-width="1916"
     inkscape:window-height="1023"
     id="namedview3860"
     showgrid="false"
     inkscape:zoom="0.52149125"
     inkscape:cx="245.97484"
     inkscape:cy="312.68511"
     inkscape:window-x="0"
     inkscape:window-y="36"
     inkscape:window-maximized="0"
     inkscape:current-layer="svg3858"
     fit-margin-top="0"
     fit-margin-left="0"
     fit-margin-right="0"
     fit-margin-bottom="0"
     inkscape:snap-global="false" />
  <metadata
     id="metadata3846">
Created by potrace 1.15, written by Peter Selinger 2001-2017
<rdf:RDF>
  <cc:Work
     rdf:about="">
    <dc:format>image/svg+xml</dc:format>
    <dc:type
       rdf:resource="http://purl.org/dc/dcmitype/StillImage" />
    <dc:title></dc:title>
  </cc:Work>
</rdf:RDF>
</metadata>
  <path
     style="fill:#000000;stroke:none;stroke-width:0.1"
     inkscape:connector-curvature="0"
     id="path3848"
     d="m 896.09999,7.2999804 c -1.8,0.7 -5,2.7 -7.1,4.4999996 -3.5,2.9 -4.7,3.2 -16.8,4.600001 -49.6,5.8 -81.2,24 -100.6,57.9 l -4.3,7.6 -2.1,-3.7 c -8.2,-14.7 -22.8,-23 -43.9,-25.2 -9.1,-1 -9.3,-1 -13.6,-5.4 -6.3,-6.3 -13.8,-8.9 -25.2,-8.9 -10.4,0 -18.4,2.3 -27.8,8 l -5.8,3.5 -5,-4.7 c -5.6,-5.2 -18.4,-11.7 -26.7,-13.4 -8.7,-1.8 -20.4,-1.4 -27.5,1 -5.1,1.7 -6.8,1.9 -9.7,1 -21.2,-6.6 -47.9,-2.3 -64.8,10.4 -5.7,4.3 -10.3,9.7 -14.7,17 -1,1.6 -1.5,1.5 -7,-1.2 -12.8,-6.5 -38.7,-13.7 -58.5,-16.3 -11.9,-1.6 -35.7,-1.4 -46.3,0.5 -25.8,4.5 -45.6,17.4 -55.4,36.1 l -2.6,5.1 -5.6,-1.4 c -6.7,-1.5 -24.5,-1.7 -32.7,-0.2 -12.7,2.2 -26.8,8.099999 -36.9,15.299999 -12.6,9.1 -25.5,24.9 -32.6,39.9 -1.7,3.7 -3.4,6.7 -3.7,6.7 -0.4,0 -3.6,-1 -7.2,-2.1 -18.1,-5.7 -47.6,-8.5 -65.1,-6 -61.499997,8.7 -86.29999,54 -69.699993,127.5 1.5,7 1.9,10.1 1.1,10.3 -2.9,1 -14.499997,10.7 -20.499997,17.2 -7.3,7.8 -14.7,21.4 -17.4,31.6 -3.6,14.1 -2.9,33.1 2.2,52.4 l 2.4,9.3 -3.4,3.8 c -4,4.5 -8.8,14.3 -10.7,22 -0.8,3.2 -1.4,10.3 -1.3,17 0.1,12.8 2,20.4 7.5,29.3 2.8,4.5 3.1,5.9 3.9,19 2.1,31.7 3,60.5 3,96.4 0,80.5 -5.2,118.5 -25.6,186.1 -3.6,11.9 -9.2,31 -12.5,42.3 l -5.9,20.7 v 73.6 73.6 h 328.99999 329 l -0.2,-114.7 -0.3,-114.8 -10.7,-0.3 -10.8,-0.3 -0.1,-184.2 c -0.1,-101.3 0,-184.7 0.1,-185.2 0.1,-0.6 0.2,-4.2 0.2,-8.1 v -7.1 l 9.7,-0.6 c 18.9,-1.3 39,-7.2 53.2,-15.8 10.5,-6.2 25,-20.9 33.4,-33.9 3.8,-5.8 7.1,-10.8 7.5,-11.3 0.3,-0.4 6,-1.6 12.6,-2.7 43.5,-7.1 60.3,-22 60.4,-53.6 0,-6.3 0.5,-8.2 4.4,-16.5 9.6,-20.3 13.8,-39.4 11.7,-53.4 -0.6,-4.1 -1.7,-9.1 -2.5,-10.9 l -1.4,-3.4 6.5,-6.3 c 3.5,-3.5 8.7,-9.2 11.4,-12.6 4.1,-5.1 5.7,-6.4 8.7,-6.9 18.7,-3.2 35.7,-8.4 46.2,-14.2 7.1,-3.9 17.9,-13.6 21.2,-19.1 1.2,-2 4.1,-6.1 6.4,-9.099999 10.4,-13.5 15,-26.3 14.1,-39 -0.7,-9.6 -3.5,-17.2 -10,-26.2 -4.2,-5.900001 -6.3,-7.800001 -10.9,-10.1000006 -6.8,-3.3 -17.3,-4.4 -22.7,-2.4 z m -403.4,364.7999996 c 5.6,2.1 29,7.9 36.3,8.9 16.9,2.5 38.5,0.8 52.6,-4 3.1,-1.1 6.3,-2 7.1,-2 1.1,0 1.3,30.4 1.3,182.5 0,100.4 -0.2,182.5 -0.6,182.5 -0.8,0 -27.4,-15.8 -54.1,-32.2 -13.3,-8.1 -24.4,-14.8 -24.7,-14.8 -0.3,0 -0.7,10.6 -0.8,23.5 l -0.3,23.4 -16.2,-9.4 c -8.9,-5.1 -26.8,-15.7 -39.7,-23.4 -12.9,-7.8 -23.7,-14.1 -24,-14.1 -0.3,0 -0.7,10.6 -0.8,23.5 l -0.3,23.4 -20.5,-11.8 c -11.3,-6.5 -29.2,-17.1 -39.9,-23.5 -10.7,-6.4 -19.7,-11.6 -20,-11.6 -0.3,0 -0.5,10.6 -0.3,23.5 l 0.3,23.6 -7.8,-0.3 -7.8,-0.3 -2.8,-10 c -7.3,-26.5 -12.2,-53.8 -15.3,-85.5 -2.1,-22.2 -3,-88.5 -1.5,-119.5 2.6,-56.4 3.2,-63.7 5.6,-67 4.1,-5.6 7.9,-14.7 9.9,-23.6 l 0.6,-2.6 24.7,-0.6 c 43.2,-1.1 64,-5.2 86.8,-17 14.9,-7.8 31.3,-21.7 42.9,-36.5 2.7,-3.4 5.2,-6.2 5.7,-6.2 0.4,0 2,0.5 3.6,1.1 z" />
</svg>
