<?xml version="1.0"?>
<svg xmlns="http://www.w3.org/2000/svg" viewBox="0 0 24 24" enable-background="new 0 0 24 24">
    <path d="M 10 4 L 10 20 L 16 20 L 14.40625 5.8125 C 14.30625 4.8125 13.40625 4 12.40625 4 L 10 4 z M 5 5.09375 L 4.40625 5.5 C 4.20625 5.6 3.6 6 3 6 L 3 8 C 3.8 8 4.5 7.7 5 7.5 C 5.5 7.7 6.2 8 7 8 C 7.8 8 8.5 7.7 9 7.5 L 9 5.09375 L 8.40625 5.5 C 8.20625 5.6 7.6 6 7 6 C 6.5 6 5.79375 5.6 5.59375 5.5 L 5 5.09375 z M 5 9.09375 L 4.40625 9.5 C 4.20625 9.6 3.6 10 3 10 L 3 12 C 3.8 12 4.5 11.7 5 11.5 C 5.5 11.7 6.2 12 7 12 C 7.8 12 8.5 11.7 9 11.5 L 9 9.09375 L 8.40625 9.5 C 8.20625 9.6 7.6 10 7 10 C 6.5 10 5.79375 9.6 5.59375 9.5 L 5 9.09375 z M 5 13.09375 L 4.40625 13.5 C 4.20625 13.6 3.6 14 3 14 L 3 16 C 3.8 16 4.5 15.7 5 15.5 C 5.5 15.7 6.2 16 7 16 C 7.8 16 8.5 15.7 9 15.5 L 9 13.09375 L 8.40625 13.5 C 8.20625 13.6 7.6 14 7 14 C 6.5 14 5.79375 13.6 5.59375 13.5 L 5 13.09375 z M 19 13.09375 L 18.40625 13.5 C 18.20625 13.6 17.6 14 17 14 C 16.8 14 16.5125 13.9125 16.3125 13.8125 L 16.5 15.90625 L 16.90625 15.90625 C 17.70625 15.90625 18.40625 15.60625 18.90625 15.40625 C 19.40625 15.60625 20.10625 15.90625 20.90625 15.90625 L 20.90625 13.90625 C 20.50625 14.00625 19.79375 13.6 19.59375 13.5 L 19 13.09375 z M 5 17.09375 L 4.40625 17.5 C 4.20625 17.6 3.6 18 3 18 L 3 20 C 3.8 20 4.5 19.7 5 19.5 C 5.5 19.7 6.2 20 7 20 C 7.8 20 8.5 19.7 9 19.5 L 9 17.09375 L 8.40625 17.5 C 8.20625 17.6 7.6 18 7 18 C 6.5 18 5.79375 17.6 5.59375 17.5 L 5 17.09375 z M 19 17.09375 L 18.40625 17.5 C 18.20625 17.6 17.6 18 17 18 L 16.8125 18 L 17 20 C 17.8 20 18.5 19.7 19 19.5 C 19.5 19.7 20.2 20 21 20 L 21 18 C 20.5 18 19.79375 17.6 19.59375 17.5 L 19 17.09375 z"/>
</svg>
