<?xml version="1.0" standalone="no"?>
<!DOCTYPE svg PUBLIC "-//W3C//DTD SVG 20010904//EN"
 "http://www.w3.org/TR/2001/REC-SVG-20010904/DTD/svg10.dtd">
<svg version="1.0" xmlns="http://www.w3.org/2000/svg"
 width="640.000000pt" height="1280.000000pt" viewBox="0 0 640.000000 1280.000000"
 preserveAspectRatio="xMidYMid meet">
<metadata>
Created by potrace 1.15, written by Peter Selinger 2001-2017
</metadata>
<g transform="translate(0.000000,1280.000000) scale(0.100000,-0.100000)"
fill="#000000" stroke="none">
<path d="M2013 12736 c-680 -329 -1236 -872 -1572 -1535 -196 -386 -308 -762
-356 -1199 -27 -239 -17 -667 20 -889 50 -296 125 -557 237 -818 295 -689 803
-1257 1463 -1636 106 -61 326 -169 344 -169 5 0 12 35 15 78 59 667 788 1039
2221 1132 88 5 190 12 228 14 l67 5 0 -3682 c0 -2495 3 -3694 10 -3719 17 -59
98 -140 187 -186 173 -89 354 -126 628 -126 193 -1 265 7 420 46 175 43 319
126 375 215 l30 47 0 5784 c0 5454 -1 5786 -17 5820 -25 52 -94 115 -172 156
-433 227 -1280 140 -1434 -148 -20 -37 -22 -58 -25 -228 l-4 -188 -262 0
c-619 0 -1089 66 -1465 207 -272 101 -492 264 -619 457 -95 145 -146 301 -165
504 -6 67 -13 122 -17 122 -3 0 -64 -29 -137 -64z"/>
</g>
</svg>
