<?xml version="1.0" encoding="UTF-8" standalone="no"?>
<svg
   xmlns:dc="http://purl.org/dc/elements/1.1/"
   xmlns:cc="http://creativecommons.org/ns#"
   xmlns:rdf="http://www.w3.org/1999/02/22-rdf-syntax-ns#"
   xmlns:svg="http://www.w3.org/2000/svg"
   xmlns="http://www.w3.org/2000/svg"
   xmlns:sodipodi="http://sodipodi.sourceforge.net/DTD/sodipodi-0.dtd"
   xmlns:inkscape="http://www.inkscape.org/namespaces/inkscape"
   version="1.0"
   viewBox="0 0 1280 1280"
   preserveAspectRatio="xMidYMid meet"
   id="svg4029"
   sodipodi:docname="microplastics.svg"
   width="1280"
   height="1280"
   inkscape:version="0.92.4 5da689c313, 2019-01-14">
  <defs
     id="defs4033" />
  <sodipodi:namedview
     pagecolor="#ffffff"
     bordercolor="#666666"
     borderopacity="1"
     objecttolerance="10"
     gridtolerance="10"
     guidetolerance="10"
     inkscape:pageopacity="0"
     inkscape:pageshadow="2"
     inkscape:window-width="1916"
     inkscape:window-height="1023"
     id="namedview4031"
     showgrid="false"
     fit-margin-top="0"
     fit-margin-left="0"
     fit-margin-right="0"
     fit-margin-bottom="0"
     inkscape:zoom="0.184375"
     inkscape:cx="-357.32094"
     inkscape:cy="639.82924"
     inkscape:window-x="0"
     inkscape:window-y="36"
     inkscape:window-maximized="0"
     inkscape:current-layer="svg4029" />
  <metadata
     id="metadata4023">
Created by potrace 1.15, written by Peter Selinger 2001-2017
<rdf:RDF>
  <cc:Work
     rdf:about="">
    <dc:format>image/svg+xml</dc:format>
    <dc:type
       rdf:resource="http://purl.org/dc/dcmitype/StillImage" />
    <dc:title></dc:title>
  </cc:Work>
</rdf:RDF>
</metadata>
  <g
     transform="matrix(0.1,0,0,-0.1,237.99778,1279.8913)"
     id="g4027"
     style="fill:#000000;stroke:none">
    <path
       d="m 3680,12790 c -452,-35 -767,-112 -855,-210 -19,-20 -20,-38 -23,-249 l -3,-227 -152,-18 c -226,-25 -487,-64 -623,-91 -204,-42 -566,-150 -1038,-311 -120,-40 -220,-74 -221,-74 -1,0 14,-57 35,-127 21,-71 45,-153 54,-184 l 16,-57 57,-6 c 128,-15 241,-47 349,-101 l 109,-53 75,23 c 326,102 661,186 915,229 77,13 396,56 417,56 4,0 9,-252 10,-559 l 3,-559 25,-27 c 30,-32 82,-60 169,-91 l 65,-23 -3,-53 c -1,-29 -9,-163 -17,-298 -7,-135 -14,-253 -14,-262 0,-12 -17,-21 -57,-33 -75,-22 -197,-78 -239,-110 -19,-14 -45,-41 -59,-59 -24,-32 -26,-42 -40,-277 -8,-134 -15,-247 -15,-250 0,-4 -30,-10 -67,-13 -113,-11 -418,-55 -602,-87 C 861,8500 134,8163 20,7792 0,7729 0,7692 0,4431 0,904 -2,1092 48,993 261,577 1288,213 2655,71 c 1838,-192 3881,26 4849,518 225,115 414,268 480,390 60,111 56,-135 56,3452 0,3255 0,3298 -20,3360 -114,368 -824,700 -1907,894 -163,29 -513,80 -620,90 -40,4 -73,10 -73,14 0,3 -7,116 -15,250 -14,235 -16,245 -40,277 -14,18 -40,45 -59,59 -42,32 -164,88 -238,110 -41,12 -58,21 -58,33 0,9 -7,127 -14,262 -8,135 -16,269 -17,298 l -3,53 65,23 c 92,33 143,61 173,96 l 26,32 v 1123 c 0,696 -4,1133 -10,1149 -35,94 -300,177 -710,221 -171,19 -673,28 -840,15 z"
       id="path4025"
       inkscape:connector-curvature="0" />
  </g>
</svg>
