<?xml version="1.0" standalone="no"?>
<!DOCTYPE svg PUBLIC "-//W3C//DTD SVG 20010904//EN"
 "http://www.w3.org/TR/2001/REC-SVG-20010904/DTD/svg10.dtd">
<svg version="1.0" xmlns="http://www.w3.org/2000/svg"
  viewBox="0 0 1280.000000 1263.000000"
 preserveAspectRatio="xMidYMid meet">
<metadata>
Created by potrace 1.15, written by Peter Selinger 2001-2017
</metadata>
<g transform="translate(0.000000,1263.000000) scale(0.100000,-0.100000)"
fill="#000000" stroke="none">
<path d="M1827 12242 l-289 -385 -167 -336 c-93 -185 -204 -412 -249 -506 -84
-178 -94 -208 -328 -1055 -32 -116 -38 -162 -79 -610 -37 -399 -45 -524 -45
-705 0 -351 38 -702 116 -1073 19 -89 34 -165 34 -167 0 -3 18 -2 40 1 l40 7
0 -2562 0 -2561 -450 0 -450 0 0 -1070 0 -1070 1030 0 1030 0 0 1070 0 1070
-450 0 -450 0 0 2590 0 2589 38 10 c20 5 170 38 332 72 162 35 297 64 298 65
2 1 -10 65 -27 141 -58 260 -100 610 -101 837 -1 114 11 290 39 603 23 243 41
449 41 457 0 9 6 16 14 16 12 0 1148 -324 4094 -1166 28 -9 52 -20 52 -26 0
-5 -173 -425 -384 -931 -799 -1916 -2230 -5348 -2673 -6407 -189 -454 -345
-829 -346 -833 -1 -4 158 -75 353 -157 294 -123 356 -146 363 -134 8 14 492
1173 1075 2573 136 326 252 595 258 597 6 3 278 -110 605 -250 660 -282 2661
-1137 3459 -1478 283 -121 520 -225 527 -231 7 -7 125 -284 264 -617 138 -333
252 -606 253 -607 1 -1 162 64 357 146 240 101 353 153 351 162 -3 13 -416
1008 -2457 5907 -438 1053 -795 1915 -793 1918 5 4 2336 -660 2344 -669 3 -3
-27 -123 -66 -267 -39 -145 -68 -266 -63 -270 4 -5 420 -170 923 -368 1272
-501 1819 -717 1862 -735 21 -9 40 -13 42 -9 2 4 16 52 31 107 14 55 35 134
46 175 12 41 60 224 109 405 49 182 98 366 110 410 12 44 61 229 110 410 99
371 117 438 156 580 40 149 40 143 13 149 -13 3 -130 24 -259 46 -129 23 -307
54 -395 70 -88 16 -241 43 -340 60 -185 33 -325 57 -735 130 -412 73 -551 98
-735 130 -99 17 -252 45 -339 61 -88 15 -161 27 -162 26 -1 -1 -18 -65 -39
-142 -54 -203 -57 -215 -66 -215 -4 0 -904 257 -2001 571 -1096 313 -2828 809
-3848 1100 -1020 292 -1856 532 -1858 533 -10 11 66 182 222 494 l184 367 271
363 c149 199 271 364 271 367 0 3 -793 594 -815 607 -5 3 -140 -168 -298 -380z
m5137 -5687 c266 -638 481 -1163 477 -1166 -9 -10 -2331 -938 -2331 -932 0 3
271 654 601 1447 331 792 638 1528 682 1635 45 107 82 190 84 185 2 -5 221
-531 487 -1169z m1290 -3095 c276 -663 499 -1206 496 -1207 -3 -2 -500 209
-1105 467 -605 259 -1371 586 -1702 728 -332 141 -602 259 -602 262 0 8 2383
960 2397 957 8 -1 229 -519 516 -1207z"/>
</g>
</svg>
