<?xml version="1.0" encoding="UTF-8" standalone="no"?>
<!-- Generator: Adobe Illustrator 11.0, SVG Export Plug-In  -->

<!-- hand edited from http://commons.wikimedia.org/wiki/Image:1_9_2_44.svg -->

<svg
   xmlns:dc="http://purl.org/dc/elements/1.1/"
   xmlns:cc="http://creativecommons.org/ns#"
   xmlns:rdf="http://www.w3.org/1999/02/22-rdf-syntax-ns#"
   xmlns:svg="http://www.w3.org/2000/svg"
   xmlns="http://www.w3.org/2000/svg"
   xmlns:sodipodi="http://sodipodi.sourceforge.net/DTD/sodipodi-0.dtd"
   xmlns:inkscape="http://www.inkscape.org/namespaces/inkscape"
   width="400"
   height="400"
   viewBox="140 90 270 270"
   xml:space="preserve"
   id="svg2"
   version="1.0"
   sodipodi:docname="overfishing.svg"
   inkscape:version="0.92.4 5da689c313, 2019-01-14"><defs
   id="defs85">
		
		
		
		
		
	</defs><sodipodi:namedview
   pagecolor="#ffffff"
   bordercolor="#666666"
   borderopacity="1"
   objecttolerance="10"
   gridtolerance="10"
   guidetolerance="10"
   inkscape:pageopacity="0"
   inkscape:pageshadow="2"
   inkscape:window-width="956"
   inkscape:window-height="1041"
   id="namedview83"
   showgrid="false"
   inkscape:zoom="1.2625"
   inkscape:cx="209.10891"
   inkscape:cy="200"
   inkscape:window-x="960"
   inkscape:window-y="18"
   inkscape:window-maximized="0"
   inkscape:current-layer="svg2" /><metadata
   id="metadata19"><rdf:RDF><cc:Work
       rdf:about=""><cc:license
         rdf:resource="http://creativecommons.org/licenses/by-sa/2.5/" /><dc:format>image/svg+xml</dc:format><dc:type
         rdf:resource="http://purl.org/dc/dcmitype/StillImage" /></cc:Work><cc:License
       rdf:about="http://creativecommons.org/licenses/by-sa/2.5/"><cc:permits
         rdf:resource="http://web.resource.org/cc/Reproduction" /><cc:permits
         rdf:resource="http://web.resource.org/cc/Distribution" /><cc:requires
         rdf:resource="http://web.resource.org/cc/Notice" /><cc:requires
         rdf:resource="http://web.resource.org/cc/Attribution" /><cc:permits
         rdf:resource="http://web.resource.org/cc/DerivativeWorks" /><cc:requires
         rdf:resource="http://web.resource.org/cc/ShareAlike" /></cc:License></rdf:RDF></metadata>
	<path
   inkscape:connector-curvature="0"
   id="path8"
   d="m 396.15632,237.0804 c 5.22581,-6.08426 8.98472,-13.31483 11.36842,-21.16265 0.91681,-3.5271 1.55858,-7.14239 2.20034,-10.93403 0,-1.32266 0.27505,-2.55715 0.27505,-4.05617 0,-1.67538 -0.27505,-3.61529 -0.45841,-5.29066 -0.64176,-3.43893 -1.55857,-6.61333 -2.8421,-9.78773 -0.91681,-1.85173 -2.01698,-3.79164 -3.11715,-5.64337 0,1.85173 0,3.35075 0.27504,4.84977 -0.27504,2.73351 -0.91681,6.08426 -1.55857,9.52319 -0.91681,3.1744 -2.20034,6.17244 -3.75892,9.08231 -1.28353,2.11626 -2.8421,4.23252 -4.40068,5.9079 -2.47538,2.55715 -5.04244,4.93795 -7.97623,7.05421 -2.56706,2.11749 -5.50085,3.968 -8.34296,5.64338 -3.02547,1.9399 -6.60102,3.61528 -10.08489,4.93795 -2.65874,1.23448 -5.50085,2.29262 -8.618,2.90986 -3.48387,1.05813 -7.24279,1.67538 -11.0017,2.11626 -2.65874,0.26454 -5.31749,0.44089 -7.88455,0.26454 -0.91681,0 -1.37521,-0.44089 -1.55858,-1.05814 0,-0.70542 0,-1.05813 0.45841,-1.49902 0.64176,-0.88177 1.28353,-1.67537 1.74193,-2.38079 l 14.48558,-16.66559 -53.44993,4.23253 c -4.21732,0.44089 -8.34296,0.44089 -12.56028,-0.44088 -3.48387,-0.44089 -6.78438,-1.23449 -10.08489,-2.73351 -3.75892,-1.67538 -8.1596,-3.79164 -12.37691,-5.90791 l -16.41087,42.50164 c -5.04245,1.32267 -10.35994,2.73351 -15.40239,4.23253 1.10017,-0.44089 -4.40068,1.49902 -10.08489,3.43893 -5.95925,2.11627 -9.99321,3.79164 -13.93549,5.64337 -7.70119,3.61529 -15.12733,7.67146 -22.4618,12.34488 -3.66723,2.29262 -7.70119,5.02613 -11.82683,7.84781 -2.47538,1.85173 -5.13413,3.968 -7.97623,6.3488 l 57.02548,-196.900764 -5.04245,-1.49902 -60.14263,205.983064 c -4.12564,3.79164 -8.06791,8.2887 -11.18506,12.87394 1.55857,0.44089 3.11715,0.88177 4.58404,1.32266 0.45841,0.17636 1.10017,0.44089 1.83362,0.61725 3.66723,1.05813 6.32598,1.67537 8.80136,2.55715 -1.10017,-0.44089 -0.4584,-0.26453 0,0 1.74194,0.61724 3.48387,1.23449 5.22581,1.85173 4.03395,1.76355 7.97623,3.1744 11.73514,4.93795 1.4669,0.61724 3.02547,1.23449 4.58405,2.11626 0.64176,0.35272 1.55857,0.7936 2.20034,1.23449 0,0.26454 0.18336,0.26454 0.18336,0.44089 0,0 0.27504,0.17636 0.27504,0.44089 0.18336,0.17635 0.18336,0.44089 0.18336,0.44089 0,0.61724 -0.4584,1.05813 -0.82512,1.23449 -2.65875,0.61724 -5.50086,1.05813 -8.1596,1.23448 -4.21732,0.70542 -8.15959,1.49902 -12.10187,2.3808 -4.03396,0.7936 -7.97623,2.11626 -11.73515,3.35075 -2.56706,0.61725 -5.50085,1.67538 -8.06791,2.55715 -2.47538,0.88178 -4.85909,1.67538 -7.05943,2.29262 -0.64176,0.26454 -1.10017,0.44089 -1.10017,0.88178 0,0.44089 0.45841,0.61724 0.64177,0.61724 0.18336,0 0.18336,0 0.18336,0 l 59.04246,4.05618 c 0.64177,0 1.28353,0.17635 1.9253,0.17635 1.10017,0 2.20034,-0.17635 3.30051,-0.17635 3.75891,-0.44089 7.33447,-1.32267 10.63498,-2.73351 4.40068,-1.93991 8.15959,-4.49706 11.64346,-7.40693 3.11715,-2.99804 5.95926,-5.99608 8.34296,-9.34683 2.20034,-3.1744 3.75891,-6.61333 5.04245,-10.14043 1.37521,-3.1744 2.20034,-6.78968 2.65874,-10.22861 0.45841,-2.73351 0.64177,-5.64337 0.64177,-8.46506 14.66893,-1.23449 28.97114,-2.90986 43.27335,-4.84977 21.63668,-3.61529 42.99832,-10.75768 62.98474,-20.98629 5.50085,-2.73351 11.0017,-5.46702 16.31919,-8.46506 3.48387,-1.85173 7.42615,-4.23253 11.18506,-6.96603 3.30051,-2.55716 6.41766,-5.02613 9.25977,-7.40693 3.11715,-2.73351 6.14261,-5.9079 9.0764,-9.34683 z"
   style="stroke-width:1.24878061" /><path
   inkscape:connector-curvature="0"
   style="fill:#ffffff;stroke-width:1.24878061"
   id="path10"
   d="m 192.25813,294.83678 c 0,-4.05618 -3.39219,-7.40693 -7.51783,-7.40693 -4.12563,0 -7.51783,3.35075 -7.51783,7.40693 0,4.14435 3.3922,7.40692 7.51783,7.40692 4.12564,0 7.51783,-3.26257 7.51783,-7.40692 z" /><path
   inkscape:connector-curvature="0"
   id="path12"
   d="m 349.03237,317.76297 c -22.09508,12.52123 -46.48219,20.80994 -72.06114,24.42522 l -17.78608,1.41084 -18.15281,1.05814 -19.1613,-0.17636 c 5.04245,-2.99804 9.62649,-6.52515 13.66045,-10.58132 l 3.94227,-4.40889 c 3.30052,-4.05617 5.95926,-8.2887 7.7012,-12.96211 0.82512,-2.99805 1.55857,-5.73155 2.20034,-8.64142 l 1.10017,-6.78968 19.06961,-1.93991 14.94398,-1.85173 10.08489,-1.49902 c 5.77589,-1.05813 11.4601,-2.55715 17.236,-4.23253 l 18.42785,-6.34879 14.30221,-6.17244 14.57725,-6.96604 13.66045,-7.23056 10.72665,-6.96604 13.66045,-12.2567 10.17657,-13.40301 -0.64176,5.11431 c -2.65875,16.48923 -9.07641,32.36121 -18.51953,46.55781 -6.41766,9.78773 -14.57726,17.98825 -24.02038,24.33704 l -5.04245,3.43893 z"
   style="stroke-width:1.24878061" /><path
   inkscape:connector-curvature="0"
   id="path14"
   d="m 384.97126,157.2796 c -4.21859,-2.90987 -8.618,-5.46702 -13.47709,-7.58329 l -79.02888,-31.5676 -1.28353,-0.61725 c -0.27504,0 -0.45841,-0.17635 -0.73345,-0.17635 -0.18336,0 -0.64176,0.17635 -0.82513,0.44088 -0.4584,0.35272 -0.4584,0.7936 -0.4584,1.23449 0,0.44089 0,0.88178 0.4584,1.05813 l 22.00341,27.51144 4.85908,6.34879 c 1.10017,2.11627 1.55857,4.23253 1.74194,6.3488 0,0.26453 0,0.44088 0,0.61724 0,1.93991 -0.45841,4.05617 -1.10017,5.99608 l -2.38371,4.84977 -2.20034,3.1744 c 4.76741,-0.88178 9.16809,-1.67537 13.84381,-2.3808 5.95926,-1.05813 12.28523,-1.85173 18.88625,-2.11626 5.50085,-0.17636 10.63498,-0.35271 15.86079,-0.35271 3.94228,0.17635 8.34296,0.35271 12.74364,0.7936 2.93378,0.44089 5.50085,0.88177 8.15959,1.49902 2.01698,0.61724 4.03396,1.67537 5.77589,2.73351 2.84211,1.93991 5.04245,4.49706 6.32598,7.40692 1.10017,2.3808 1.83362,5.11431 2.01698,7.67146 0.91681,-2.3808 1.28353,-4.67342 1.28353,-7.23057 0,-0.44089 0,-0.61724 0,-1.05813 -0.18336,-3.1744 -0.64176,-6.17244 -1.46689,-9.34684 -1.37521,-3.35075 -3.11715,-6.52514 -5.13413,-9.25865 -1.74193,-2.11627 -3.66723,-4.05618 -5.68421,-5.73155 0,-0.26453 -0.18336,-0.26453 -0.18336,-0.26453 z"
   style="stroke-width:1.24878061" /><path
   inkscape:connector-curvature="0"
   id="path16"
   d="m 327.02897,335.92758 c 4.12563,-1.67538 8.06791,-3.52711 11.82683,-5.64338 0.4584,0.17636 1.10017,0.17636 1.55857,0.17636 2.65874,0 5.31749,-0.17636 7.88455,-0.61724 7.70119,-0.61725 15.40238,-1.67538 22.92021,-2.99805 -8.15959,5.29066 -15.86078,11.02221 -22.92021,17.19465 -6.14261,5.02613 -11.64346,10.58132 -17.14432,15.96016 -1.55857,0 -2.8421,-0.44089 -3.94227,-0.7936 -4.85909,-2.11626 -9.25977,-4.40888 -13.66045,-6.96603 -4.21732,-2.29262 -7.88455,-5.02613 -11.0017,-8.20053 2.3837,-0.88178 4.85909,-1.67537 7.24279,-2.3808 5.95925,-1.41084 11.64347,-3.35075 17.236,-5.73154 z"
   style="stroke-width:1.24878061" />
</svg>