<?xml version="1.0" encoding="UTF-8" standalone="no"?>
<!-- Created with Inkscape (http://www.inkscape.org/) -->

<svg
   xmlns:dc="http://purl.org/dc/elements/1.1/"
   xmlns:cc="http://creativecommons.org/ns#"
   xmlns:rdf="http://www.w3.org/1999/02/22-rdf-syntax-ns#"
   xmlns:svg="http://www.w3.org/2000/svg"
   xmlns="http://www.w3.org/2000/svg"
   xmlns:sodipodi="http://sodipodi.sourceforge.net/DTD/sodipodi-0.dtd"
   xmlns:inkscape="http://www.inkscape.org/namespaces/inkscape"
   id="svg4037"
   version="1.1"
   inkscape:version="0.48.5 r10040"
   sodipodi:docname="water-bottle-plastic-b-w.svg">
  <defs
     id="defs4039">
    <linearGradient
       id="linearGradient3784">
      <stop
         id="stop3786"
         offset="0"
         style="stop-color:#9ce2ff;stop-opacity:1;" />
      <stop
         style="stop-color:#37b5e9;stop-opacity:1;"
         offset="0.5"
         id="stop3788" />
      <stop
         id="stop3790"
         offset="1"
         style="stop-color:#4aabd3;stop-opacity:1" />
    </linearGradient>
    <linearGradient
       id="linearGradient3774">
      <stop
         style="stop-color:#9ce2ff;stop-opacity:1;"
         offset="0"
         id="stop3776" />
      <stop
         id="stop3782"
         offset="0.5"
         style="stop-color:#37b5e9;stop-opacity:1;" />
      <stop
         style="stop-color:#4aabd3;stop-opacity:1"
         offset="1"
         id="stop3778" />
    </linearGradient>
  </defs>
  <sodipodi:namedview
     id="base"
     pagecolor="#ffffff"
     bordercolor="#666666"
     borderopacity="1.0"
     inkscape:pageopacity="0.0"
     inkscape:pageshadow="2"
     inkscape:zoom="0.7"
     inkscape:cx="27.83199"
     inkscape:cy="461.78296"
     inkscape:document-units="px"
     inkscape:current-layer="layer1"
     showgrid="false"
     showguides="true"
     inkscape:guide-bbox="true"
     inkscape:window-width="1920"
     inkscape:window-height="1055"
     inkscape:window-x="0"
     inkscape:window-y="0"
     inkscape:window-maximized="1"
     fit-margin-top="0"
     fit-margin-left="0"
     fit-margin-right="0"
     fit-margin-bottom="0">
    <sodipodi:guide
       orientation="0,1"
       position="632.84887,521.34691"
       id="guide4219" />
    <sodipodi:guide
       orientation="1,0"
       position="548.56315,427.77548"
       id="guide4751" />
    <sodipodi:guide
       orientation="0,1"
       position="581.4203,497.0612"
       id="guide4857" />
    <sodipodi:guide
       orientation="0,1"
       position="548.56315,389.73977"
       id="guide4859" />
    <sodipodi:guide
       orientation="6.123234e-17,-1"
       position="576.91965,617.39533"
       id="guide4909" />
    <sodipodi:guide
       orientation="0,1"
       position="519.5935,-0.56548647"
       id="guide4914" />
    <sodipodi:guide
       orientation="1,0"
       position="122.13458,157.0612"
       id="guide4953" />
    <sodipodi:guide
       orientation="0,1"
       position="108.38458,709.20405"
       id="guide5003" />
    <sodipodi:guide
       orientation="0,1"
       position="27.396666,709.20405"
       id="guide5005" />
    <sodipodi:guide
       orientation="1,0"
       position="87.670296,674.38263"
       id="guide5007" />
    <sodipodi:guide
       orientation="1,0"
       position="159.6041,704.07632"
       id="guide5009" />
    <sodipodi:guide
       orientation="1,0"
       position="81.439826,759.06922"
       id="guide5011" />
    <sodipodi:guide
       orientation="0,1"
       position="173.86879,731.66884"
       id="guide5013" />
    <sodipodi:guide
       orientation="0,1"
       position="140.34887,37.418344"
       id="guide5034" />
    <sodipodi:guide
       orientation="0,1"
       position="122.13458,18.489774"
       id="guide5036" />
    <sodipodi:guide
       orientation="0,1"
       position="16.790066,709.20405"
       id="guide5065" />
  </sodipodi:namedview>
  <metadata
     id="metadata4042">
    <rdf:RDF>
      <cc:Work
         rdf:about="">
        <dc:format>image/svg+xml</dc:format>
        <dc:type
           rdf:resource="http://purl.org/dc/dcmitype/StillImage" />
        <dc:title></dc:title>
      </cc:Work>
    </rdf:RDF>
  </metadata>
  <g
     inkscape:label="Calque 1"
     inkscape:groupmode="layer"
     id="layer1"
     transform="translate(264.27744,-209.375)">
    <path
       style="fill:#000000;fill-opacity:1;stroke:none"
       d="m -182.02928,208.90684 0,0.125 -2.88713,0 c 0.18201,14.37834 0.15691,30.49423 0.15691,40.59375 -13.29687,0.10181 -11.86722,10.95592 -11.36026,21.28125 0.18954,3.86016 -2.97153,10.26522 0.34521,10.71875 16.75301,2.29078 1.83567,21.21004 1.3808,33.125 2.12733,19.48842 -67.21057,91.20911 -66.84348,132.3125 0.27794,31.12076 20.96281,54.72363 0.25106,79.71875 -11.12909,25.91165 21.82208,49.41752 0.12553,71.65625 -5.55341,76.97268 -1.98246,153.98565 -0.59626,230.96875 1.6405,24.30604 4.89968,50.38499 18.29566,71.28125 11.12533,20.62307 48.95478,26.37682 55.20078,-0.9375 16.22008,12.50436 18.35739,15.82362 45.8176,18.34375 l 0,0.0312 c 0.0639,-0.006 0.12453,-0.0258 0.18829,-0.0312 0.0742,0.007 0.14539,0.0249 0.21967,0.0312 l 0,-0.0312 c 28.84948,-0.67869 40.63347,-14.74888 45.817593,-18.34375 6.246005,27.31432 44.07545,21.56057 55.200786,0.9375 13.395979,-20.89626 16.655159,-46.97521 18.295655,-71.28125 1.386197,-76.9831 4.957147,-153.99607 -0.596256,-230.96875 -21.696551,-22.23873 11.254618,-45.7446 0.125527,-71.65625 -20.711751,-24.99512 0.04975,-48.59741 0.251056,-79.71875 0.265546,-41.05312 -66.976414,-108.79695 -64.835033,-132.3125 -0.454872,-11.91496 -16.459558,-32.46037 0.407965,-33.65625 2.903946,-0.20588 1.090132,-6.40822 0.721784,-9.65625 -1.074256,-9.47254 1.81295,-21.74865 -11.705454,-21.9375 0.02017,-10.44874 -1.47495,-40.5 -1.47495,-40.5 l -5.868413,-0.0937 c -0.008,0.0411 -0.0239,0.0837 -0.0313,0.125 l -76.60325,-0.125 z"
       id="path4216-6"
       inkscape:connector-curvature="0"
       sodipodi:nodetypes="ccccsscscccccccccccccccscsscccccc" />
    <path
       style="fill:#24bfff;fill-opacity:1;fill-rule:evenodd;stroke:none"
       d="m -209.85919,237.42162 0,0.25253"
       id="path5075"
       inkscape:connector-curvature="0" />
  </g>
</svg>
