<?xml version="1.0" encoding="UTF-8" standalone="no"?>
<svg
   xmlns:dc="http://purl.org/dc/elements/1.1/"
   xmlns:cc="http://creativecommons.org/ns#"
   xmlns:rdf="http://www.w3.org/1999/02/22-rdf-syntax-ns#"
   xmlns:svg="http://www.w3.org/2000/svg"
   xmlns="http://www.w3.org/2000/svg"
   xmlns:sodipodi="http://sodipodi.sourceforge.net/DTD/sodipodi-0.dtd"
   xmlns:inkscape="http://www.inkscape.org/namespaces/inkscape"
   version="1.0"
   viewBox="0 0 1240 1240"
   preserveAspectRatio="xMidYMid meet"
   id="svg4453"
   sodipodi:docname="plasticstraw.svg"
   width="1240"
   height="1240"
   inkscape:version="0.92.4 5da689c313, 2019-01-14">
  <defs
     id="defs4457" />
  <sodipodi:namedview
     pagecolor="#ffffff"
     bordercolor="#666666"
     borderopacity="1"
     objecttolerance="10"
     gridtolerance="10"
     guidetolerance="10"
     inkscape:pageopacity="0"
     inkscape:pageshadow="2"
     inkscape:window-width="1916"
     inkscape:window-height="951"
     id="namedview4455"
     showgrid="false"
     fit-margin-top="0"
     fit-margin-left="0"
     fit-margin-right="0"
     fit-margin-bottom="0"
     inkscape:zoom="0.184375"
     inkscape:cx="-442.33395"
     inkscape:cy="593.00906"
     inkscape:window-x="0"
     inkscape:window-y="108"
     inkscape:window-maximized="0"
     inkscape:current-layer="svg4453" />
  <metadata
     id="metadata4447">
Created by potrace 1.15, written by Peter Selinger 2001-2017
<rdf:RDF>
  <cc:Work
     rdf:about="">
    <dc:format>image/svg+xml</dc:format>
    <dc:type
       rdf:resource="http://purl.org/dc/dcmitype/StillImage" />
    <dc:title></dc:title>
  </cc:Work>
</rdf:RDF>
</metadata>
  <g
     transform="matrix(0.1,0,0,-0.1,300.16623,1283.4955)"
     id="g4451"
     style="fill:#000000;stroke:none">
    <path
       d="m 569,12728 c -21,-63 -24,-90 -23,-201 0,-70 5,-132 10,-136 5,-5 79,-21 164,-35 606,-102 1188,-236 1420,-327 134,-53 128,-43 204,-354 72,-296 182,-746 307,-1252 119,-486 130,-535 126,-539 -2,-2 -66,-13 -143,-24 C 2084,9780 1606,9636 1172,9420 866,9267 645,9115 449,8920 323,8795 244,8696 175,8574 -65,8154 -4,7687 337,7329 l 53,-56 560,-2798 c 308,-1539 560,-2816 560,-2837 0,-55 28,-171 60,-251 83,-203 252,-393 490,-549 660,-435 1686,-491 2417,-133 392,192 639,453 734,776 17,59 22,106 24,229 3,137 42,445 335,2630 182,1361 352,2633 378,2825 l 46,350 76,92 c 138,168 224,327 272,503 31,114 33,356 4,465 -127,477 -600,872 -1339,1119 -435,146 -889,214 -1472,222 -310,5 -340,6 -344,22 -3,17 -77,323 -167,690 -24,100 -64,266 -90,370 -25,103 -78,322 -119,487 -41,165 -97,392 -124,505 l -50,205 -45,41 c -153,140 -639,292 -1526,475 -135,28 -457,89 -470,89 -3,0 -17,-33 -31,-72 z"
       id="path4449"
       inkscape:connector-curvature="0" />
  </g>
</svg>
