<?xml version="1.0" standalone="no"?>
<!DOCTYPE svg PUBLIC "-//W3C//DTD SVG 20010904//EN"
 "http://www.w3.org/TR/2001/REC-SVG-20010904/DTD/svg10.dtd">
<svg version="1.0" xmlns="http://www.w3.org/2000/svg"
  viewBox="0 0 1280.000000 1280.000000"
 preserveAspectRatio="xMidYMid meet">
<metadata>
Created by potrace 1.15, written by Peter Selinger 2001-2017
</metadata>
<g transform="translate(0.000000,1280.000000) scale(0.100000,-0.100000)"
fill="#000000" stroke="none">
<path d="M4880 12032 c0 -4 -34 -156 -75 -337 -351 -1555 -415 -1841 -415
-1857 0 -23 33 -24 -818 8 -387 14 -705 24 -708 21 -7 -7 -70 -613 -93 -897
-52 -636 -62 -895 -66 -1620 -2 -360 -8 -801 -14 -980 -46 -1398 -61 -2015
-61 -2540 0 -594 -16 -1005 -61 -1555 -21 -262 -77 -789 -108 -1008 -12 -89
-14 -130 -7 -132 6 -2 337 -11 736 -20 399 -9 896 -20 1105 -25 209 -5 578
-14 820 -20 242 -6 611 -15 820 -20 533 -13 1350 -28 2170 -40 385 -5 1079
-15 1543 -21 463 -7 845 -9 848 -7 3 3 -11 395 -32 869 -34 799 -37 904 -33
1399 2 294 4 967 3 1495 -1 952 -9 1283 -40 1655 -35 434 -41 1470 -14 2685 5
231 11 479 12 550 3 111 1 130 -12 128 -40 -6 -609 -44 -785 -53 -110 -6 -398
-14 -641 -17 l-440 -6 -12 69 c-7 38 -53 310 -102 604 -49 294 -102 605 -116
691 l-27 157 -256 7 c-141 3 -261 8 -266 9 -6 2 -39 179 -75 394 l-64 390
-221 6 c-174 5 -2224 27 -2442 26 -29 0 -53 -4 -53 -8z m1787 -618 l411 -6 12
-67 c6 -36 14 -77 17 -90 l6 -24 -889 7 c-489 5 -891 9 -893 11 -3 4 9 63 30
148 l10 38 442 -6 c243 -3 627 -8 854 -11z m-109 -873 c365 -5 664 -10 666
-12 6 -7 140 -809 135 -812 -3 -3 -259 5 -1571 48 -191 7 -228 10 -228 23 0
13 154 705 166 745 6 20 -83 19 832 8z"/>
</g>
</svg>
