<?xml version="1.0" encoding="UTF-8" standalone="no"?>
<!-- Created with Inkscape (http://www.inkscape.org/) -->

<svg
   xmlns:dc="http://purl.org/dc/elements/1.1/"
   xmlns:cc="http://creativecommons.org/ns#"
   xmlns:rdf="http://www.w3.org/1999/02/22-rdf-syntax-ns#"
   xmlns:svg="http://www.w3.org/2000/svg"
   xmlns="http://www.w3.org/2000/svg"
   xmlns:sodipodi="http://sodipodi.sourceforge.net/DTD/sodipodi-0.dtd"
   xmlns:inkscape="http://www.inkscape.org/namespaces/inkscape"
   id="svg4037"
   version="1.1"
   inkscape:version="0.92.4 5da689c313, 2019-01-14"
   sodipodi:docname="plasticbottle.svg"
   width="150"
   height="150">
  <defs
     id="defs4039">
    <linearGradient
       id="linearGradient3784">
      <stop
         id="stop3786"
         offset="0"
         style="stop-color:#9ce2ff;stop-opacity:1;" />
      <stop
         style="stop-color:#37b5e9;stop-opacity:1;"
         offset="0.5"
         id="stop3788" />
      <stop
         id="stop3790"
         offset="1"
         style="stop-color:#4aabd3;stop-opacity:1" />
    </linearGradient>
    <linearGradient
       id="linearGradient3774">
      <stop
         style="stop-color:#9ce2ff;stop-opacity:1;"
         offset="0"
         id="stop3776" />
      <stop
         id="stop3782"
         offset="0.5"
         style="stop-color:#37b5e9;stop-opacity:1;" />
      <stop
         style="stop-color:#4aabd3;stop-opacity:1"
         offset="1"
         id="stop3778" />
    </linearGradient>
  </defs>
  <sodipodi:namedview
     id="base"
     pagecolor="#ffffff"
     bordercolor="#666666"
     borderopacity="1.0"
     inkscape:pageopacity="0.0"
     inkscape:pageshadow="2"
     inkscape:zoom="0.7"
     inkscape:cx="-172.57593"
     inkscape:cy="-117.97448"
     inkscape:document-units="px"
     inkscape:current-layer="layer1"
     showgrid="false"
     showguides="true"
     inkscape:guide-bbox="true"
     inkscape:window-width="1916"
     inkscape:window-height="951"
     inkscape:window-x="0"
     inkscape:window-y="108"
     inkscape:window-maximized="0"
     fit-margin-top="0"
     fit-margin-left="0"
     fit-margin-right="0"
     fit-margin-bottom="0">
    <sodipodi:guide
       orientation="0,1"
       position="632.44095,570.1609"
       id="guide4219" />
    <sodipodi:guide
       orientation="1,0"
       position="548.15523,476.58947"
       id="guide4751" />
    <sodipodi:guide
       orientation="0,1"
       position="581.01238,545.87519"
       id="guide4857" />
    <sodipodi:guide
       orientation="0,1"
       position="548.15523,438.55376"
       id="guide4859" />
    <sodipodi:guide
       orientation="6.123234e-17,-1"
       position="576.51173,666.20932"
       id="guide4909" />
    <sodipodi:guide
       orientation="0,1"
       position="519.18558,48.248499"
       id="guide4914" />
    <sodipodi:guide
       orientation="1,0"
       position="121.72666,205.87519"
       id="guide4953" />
    <sodipodi:guide
       orientation="0,1"
       position="107.97666,758.01804"
       id="guide5003" />
    <sodipodi:guide
       orientation="0,1"
       position="26.988747,758.01804"
       id="guide5005" />
    <sodipodi:guide
       orientation="1,0"
       position="87.262377,723.19662"
       id="guide5007" />
    <sodipodi:guide
       orientation="1,0"
       position="159.19618,752.89031"
       id="guide5009" />
    <sodipodi:guide
       orientation="1,0"
       position="81.031907,807.88321"
       id="guide5011" />
    <sodipodi:guide
       orientation="0,1"
       position="173.46087,780.48283"
       id="guide5013" />
    <sodipodi:guide
       orientation="0,1"
       position="139.94095,86.23233"
       id="guide5034" />
    <sodipodi:guide
       orientation="0,1"
       position="121.72666,67.30376"
       id="guide5036" />
    <sodipodi:guide
       orientation="0,1"
       position="16.382147,758.01804"
       id="guide5065" />
  </sodipodi:namedview>
  <metadata
     id="metadata4042">
    <rdf:RDF>
      <cc:Work
         rdf:about="">
        <dc:format>image/svg+xml</dc:format>
        <dc:type
           rdf:resource="http://purl.org/dc/dcmitype/StillImage" />
        <dc:title></dc:title>
      </cc:Work>
    </rdf:RDF>
  </metadata>
  <g
     inkscape:label="Calque 1"
     inkscape:groupmode="layer"
     id="layer1"
     transform="translate(263.86952,-208.18899)">
    <path
       style="fill:#000000;fill-opacity:1;stroke:none;stroke-width:0.21045394"
       d="m -197.30664,208.54792 v 0.0263 h -0.60761 c 0.0383,3.02598 0.033,6.41763 0.033,8.54311 -2.79838,0.0214 -2.49751,2.30572 -2.39082,4.47872 0.0399,0.81239 -0.62537,2.16036 0.0727,2.25581 3.52573,0.4821 0.38632,4.46373 0.29059,6.97128 0.44771,4.10142 -14.14473,19.19532 -14.06747,27.84569 0.0585,6.54949 4.4117,11.5168 0.0528,16.77713 -2.34216,5.4532 4.59255,10.40011 0.0264,15.08034 -1.16874,16.1992 -0.41721,32.40688 -0.12548,48.60828 0.34525,5.1153 1.03115,10.60372 3.85039,15.00142 2.34137,4.34021 10.30273,5.5511 11.61722,-0.1973 3.41358,2.63159 3.86339,3.33014 9.6425,3.86051 v 0.007 c 0.0134,-0.001 0.0262,-0.005 0.0396,-0.007 0.0156,10e-4 0.0306,0.005 0.0462,0.007 v -0.007 c 6.07149,-0.14283 8.55148,-3.10396 9.6425,-3.86051 1.31449,5.7484 9.27585,4.53751 11.61722,0.1973 2.81924,-4.3977 3.50514,-9.88612 3.85039,-15.00142 0.29173,-16.2014 1.04325,-32.40908 -0.12548,-48.60828 -4.56613,-4.68023 2.36858,-9.62714 0.0264,-15.08034 -4.35887,-5.26033 0.0105,-10.22752 0.0528,-16.77713 0.0559,-8.63979 -14.09545,-22.89675 -13.64479,-27.84569 -0.0957,-2.50755 -3.46398,-6.83141 0.0859,-7.08309 0.61115,-0.0433 0.22942,-1.34863 0.1519,-2.03219 -0.22608,-1.99354 0.38154,-4.57709 -2.46346,-4.61684 0.004,-2.19897 -0.31041,-8.52338 -0.31041,-8.52338 l -1.23503,-0.0197 c -0.002,0.009 -0.005,0.0176 -0.007,0.0263 l -16.12146,-0.0263 z"
       id="path4216-6"
       inkscape:connector-curvature="0"
       sodipodi:nodetypes="ccccsscscccccccccccccccscsscccccc" />
    <path
       style="fill:#24bfff;fill-opacity:1;fill-rule:evenodd;stroke:none"
       d="m -209.85919,237.42162 v 0.25253"
       id="path5075"
       inkscape:connector-curvature="0" />
  </g>
</svg>
