<?xml version="1.0" standalone="no"?>
<!DOCTYPE svg PUBLIC "-//W3C//DTD SVG 20010904//EN"
 "http://www.w3.org/TR/2001/REC-SVG-20010904/DTD/svg10.dtd">
<svg version="1.0" xmlns="http://www.w3.org/2000/svg"
 viewBox="0 0 1280.000000 1280.000000"
 preserveAspectRatio="xMidYMid meet">
<metadata>
Created by potrace 1.15, written by Peter Selinger 2001-2017
</metadata>
<g transform="translate(0.000000,1280.000000) scale(0.100000,-0.100000)"
fill="#000000" stroke="none">
<path d="M6295 11439 c-245 -15 -472 -94 -691 -240 -231 -155 -422 -394 -523
-654 -33 -83 -58 -177 -87 -322 l-4 -23 -993 0 c-976 0 -993 -1 -1037 -21 -55
-25 -95 -62 -123 -114 -21 -38 -22 -53 -25 -388 -3 -407 0 -429 73 -502 66
-67 106 -75 367 -75 l218 0 2 -3587 3 -3588 23 -70 c43 -125 90 -204 177 -290
130 -129 249 -186 431 -205 67 -7 811 -10 2314 -8 2077 3 2219 5 2280 21 231
63 418 236 496 458 l29 84 3 3593 2 3592 268 0 c315 0 345 5 416 74 74 73 77
94 74 503 -3 335 -4 350 -25 388 -28 52 -68 89 -123 114 -44 20 -61 21 -1037
21 l-993 0 -4 23 c-74 369 -188 592 -418 819 -286 282 -673 423 -1093 397z
m212 -610 c260 -35 480 -188 606 -420 31 -56 77 -177 77 -201 0 -4 -355 -8
-790 -8 -434 0 -790 4 -790 8 0 5 9 38 21 73 104 321 411 548 756 558 23 0 77
-4 120 -10z"/>
</g>
</svg>
