<?xml version="1.0" encoding="UTF-8" standalone="no"?>
<!-- Created with Inkscape (http://www.inkscape.org/) -->

<svg
   xmlns:dc="http://purl.org/dc/elements/1.1/"
   xmlns:cc="http://creativecommons.org/ns#"
   xmlns:rdf="http://www.w3.org/1999/02/22-rdf-syntax-ns#"
   xmlns:svg="http://www.w3.org/2000/svg"
   xmlns="http://www.w3.org/2000/svg"
   version="1.1"
   width="524.40942"
   height="744.09448"
   id="svg2">
  <defs
     id="defs4" />
  <metadata
     id="metadata7">
    <rdf:RDF>
      <cc:Work
         rdf:about="">
        <dc:format>image/svg+xml</dc:format>
        <dc:type
           rdf:resource="http://purl.org/dc/dcmitype/StillImage" />
        <dc:title></dc:title>
      </cc:Work>
    </rdf:RDF>
  </metadata>
  <g
     transform="translate(0,-308.26769)"
     id="layer1">
    <path
       d="m 96.169401,310.49103 c -0.06225,-0.0297 -0.11052,0.0182 -0.11052,0.0552 0,1.3341 19.275149,26.94569 33.929469,45.09194 31.45448,38.94966 97.05739,117.43851 105.93291,126.71056 6.82503,7.12993 8.27046,9.65241 7.51532,13.42812 -0.68226,3.4113 0.28337,5.98126 3.70241,9.67046 4.40514,4.75322 4.60662,5.72107 3.53662,17.51732 -0.62275,6.86534 -3.04286,20.91597 -5.3602,31.22176 -2.31733,10.30578 -5.75662,32.98437 -7.6811,50.39687 -11.58328,104.80475 -15.97379,152.57753 -16.90947,184.62276 l -0.77364,27.40882 3.42611,-28.29297 c 9.46805,-78.44713 28.29086,-207.73941 37.41083,-256.95775 l 3.7024,-20.00394 6.41014,0.5526 6.41012,0.55259 -0.16569,129.97089 c -0.32576,225.32045 0.0225,371.48424 -0.44208,407.92734 l 31.44278,0 c -1.02668,-6.8473 -1.61807,-20.695 -2.26564,-48.9601 -1.90579,-83.18297 -4.57149,-183.0915 -6.46539,-243.14284 -3.08639,-97.8629 -3.47661,-113.31838 -4.58655,-180.8651 l -1.04994,-65.92486 15.03064,0.22104 c 8.27172,0.14093 15.81458,-0.2205 16.79896,-0.82889 2.52817,-1.56249 6.04526,-19.04266 4.19974,-20.88818 -0.83704,-0.83705 -5.62084,-2.18664 -10.66513,-2.98403 -5.04428,-0.7974 -9.58829,-1.79666 -10.05727,-2.26565 -1.50786,-1.50786 43.8475,-40.03543 82.39226,-69.95881 8.00647,-6.21567 33.89126,-25.15717 50.94947,-37.30033 32.41619,-23.07594 -9.95017,-0.17453 -67.85894,36.69247 -10.69829,6.81093 -21.79149,13.69951 -24.64585,15.30694 -10.16961,5.72698 -56.89754,36.76056 -69.24044,45.9761 -12.78417,9.54499 -19.475,12.46441 -23.09857,10.05727 -1.1126,-0.7391 -5.23089,-8.09003 -9.17311,-16.35688 -8.24603,-17.29204 -8.40634,-17.48174 -43.65519,-50.34162 -28.14202,-26.23463 -60.87142,-58.87424 -90.57079,-90.23914 -9.34581,-9.86991 -17.082081,-17.62564 -18.014669,-18.06993 z"
       id="path3196"
       style="fill:#000000" />
  </g>
</svg>
