<?xml version="1.0" standalone="no"?>
<!DOCTYPE svg PUBLIC "-//W3C//DTD SVG 20010904//EN"
 "http://www.w3.org/TR/2001/REC-SVG-20010904/DTD/svg10.dtd">
<svg version="1.0" xmlns="http://www.w3.org/2000/svg"
 width="804.000000pt" height="1280.000000pt" viewBox="0 0 804.000000 1280.000000"
 preserveAspectRatio="xMidYMid meet">
<metadata>
Created by potrace 1.15, written by Peter Selinger 2001-2017
</metadata>
<g transform="translate(0.000000,1280.000000) scale(0.100000,-0.100000)"
fill="#000000" stroke="none">
<path d="M3680 12790 c-452 -35 -767 -112 -855 -210 -19 -20 -20 -38 -23 -249
l-3 -227 -152 -18 c-226 -25 -487 -64 -623 -91 -204 -42 -566 -150 -1038 -311
-120 -40 -220 -74 -221 -74 -1 0 14 -57 35 -127 21 -71 45 -153 54 -184 l16
-57 57 -6 c128 -15 241 -47 349 -101 l109 -53 75 23 c326 102 661 186 915 229
77 13 396 56 417 56 4 0 9 -252 10 -559 l3 -559 25 -27 c30 -32 82 -60 169
-91 l65 -23 -3 -53 c-1 -29 -9 -163 -17 -298 -7 -135 -14 -253 -14 -262 0 -12
-17 -21 -57 -33 -75 -22 -197 -78 -239 -110 -19 -14 -45 -41 -59 -59 -24 -32
-26 -42 -40 -277 -8 -134 -15 -247 -15 -250 0 -4 -30 -10 -67 -13 -113 -11
-418 -55 -602 -87 -1090 -189 -1817 -526 -1931 -897 -20 -63 -20 -100 -20
-3361 0 -3527 -2 -3339 48 -3438 213 -416 1240 -780 2607 -922 1838 -192 3881
26 4849 518 225 115 414 268 480 390 60 111 56 -135 56 3452 0 3255 0 3298
-20 3360 -114 368 -824 700 -1907 894 -163 29 -513 80 -620 90 -40 4 -73 10
-73 14 0 3 -7 116 -15 250 -14 235 -16 245 -40 277 -14 18 -40 45 -59 59 -42
32 -164 88 -238 110 -41 12 -58 21 -58 33 0 9 -7 127 -14 262 -8 135 -16 269
-17 298 l-3 53 65 23 c92 33 143 61 173 96 l26 32 0 1123 c0 696 -4 1133 -10
1149 -35 94 -300 177 -710 221 -171 19 -673 28 -840 15z"/>
</g>
</svg>
