<?xml version="1.0" standalone="no"?>
<!DOCTYPE svg PUBLIC "-//W3C//DTD SVG 20010904//EN"
 "http://www.w3.org/TR/2001/REC-SVG-20010904/DTD/svg10.dtd">
<svg version="1.0" xmlns="http://www.w3.org/2000/svg"
 width="640.000000pt" height="1280.000000pt" viewBox="0 0 640.000000 1280.000000"
 preserveAspectRatio="xMidYMid meet">
<metadata>
Created by potrace 1.15, written by Peter Selinger 2001-2017
</metadata>
<g transform="translate(0.000000,1280.000000) scale(0.100000,-0.100000)"
fill="#000000" stroke="none">
<path d="M569 12728 c-21 -63 -24 -90 -23 -201 0 -70 5 -132 10 -136 5 -5 79
-21 164 -35 606 -102 1188 -236 1420 -327 134 -53 128 -43 204 -354 72 -296
182 -746 307 -1252 119 -486 130 -535 126 -539 -2 -2 -66 -13 -143 -24 -550
-80 -1028 -224 -1462 -440 -306 -153 -527 -305 -723 -500 -126 -125 -205 -224
-274 -346 -240 -420 -179 -887 162 -1245 l53 -56 560 -2798 c308 -1539 560
-2816 560 -2837 0 -55 28 -171 60 -251 83 -203 252 -393 490 -549 660 -435
1686 -491 2417 -133 392 192 639 453 734 776 17 59 22 106 24 229 3 137 42
445 335 2630 182 1361 352 2633 378 2825 l46 350 76 92 c138 168 224 327 272
503 31 114 33 356 4 465 -127 477 -600 872 -1339 1119 -435 146 -889 214
-1472 222 -310 5 -340 6 -344 22 -3 17 -77 323 -167 690 -24 100 -64 266 -90
370 -25 103 -78 322 -119 487 -41 165 -97 392 -124 505 l-50 205 -45 41 c-153
140 -639 292 -1526 475 -135 28 -457 89 -470 89 -3 0 -17 -33 -31 -72z"/>
</g>
</svg>
