<?xml version="1.0" encoding="UTF-8" standalone="no"?>
<!-- Created with Inkscape (http://www.inkscape.org/) -->
<svg
   xmlns:svg="http://www.w3.org/2000/svg"
   xmlns="http://www.w3.org/2000/svg"
   version="1.0"
   width="442"
   height="463"
   id="svg1920">
  <defs
     id="defs1923" />
  <path
     d="M 4.6762905,435.45328 L 4.6762905,413.13467 L 9.3879953,413.11042 C 16.793685,413.07231 22.266147,411.46033 32.946522,406.17096 C 51.665423,396.90058 63.184739,397.43215 87.999079,408.71147 C 107.17181,417.4264 121.33084,416.91198 143.64206,406.68987 C 162.0014,398.27836 171.0053,398.45473 194.13644,407.67901 C 217.8492,417.13523 225.9722,417.13523 249.68497,407.67901 C 272.80061,398.46091 281.78359,398.28122 300.17935,406.66892 C 322.29549,416.75296 336.71578,417.3911 355.06991,409.098 C 380.60521,397.56016 392.24418,396.8669 410.35854,405.80477 C 421.33032,411.21839 427.66966,413.10649 434.92938,413.1229 L 440.13705,413.13467 L 440.13705,435.45328 L 440.13705,457.77188 L 435.72216,457.77188 C 428.29104,457.77188 421.18578,455.81898 412.29094,451.33174 C 401.16696,445.71997 394.70409,443.88215 386.14438,443.89652 C 377.50008,443.91103 371.70875,445.40835 360.12797,450.62288 C 348.0789,456.04829 340.89157,457.77188 330.31679,457.77188 C 319.84517,457.77188 314.50854,456.35745 300.2738,449.80924 C 286.3163,443.38856 279.94017,442.20051 270.1517,444.19666 C 266.03408,445.03637 258.29387,447.6026 252.95124,449.89939 C 239.55183,455.65982 233.8356,457.02251 222.90264,457.06271 C 211.87175,457.10326 205.11101,455.53417 191.78488,449.84062 C 171.14132,441.02073 162.20273,441.01902 143.55818,449.83138 C 129.93882,456.26858 124.36995,457.74907 113.78946,457.74544 C 103.12044,457.74178 95.431581,455.92562 84.365987,450.79536 C 73.181024,445.60976 66.528879,443.88475 57.716602,443.88475 C 49.126379,443.88475 42.565285,445.74618 31.412668,451.34736 C 23.197488,455.47326 14.80853,457.77188 7.965894,457.77188 L 4.6762905,457.77188 L 4.6762905,435.45328 z M 3.6843525,370.97731 C 3.6843525,350.16518 3.7332253,349.65064 5.7100485,349.65064 C 11.220006,349.65064 24.020727,346.09259 32.450553,342.21793 C 44.90358,336.49406 49.171621,335.42808 59.232878,335.52877 C 68.162988,335.61814 70.495748,336.20555 87.007141,342.52251 C 92.735583,344.7141 98.984793,346.65654 100.89427,346.83901 L 104.36605,347.1708 L 104.62345,298.19805 L 104.88086,249.2253 L 88.291542,210.93867 C 73.627951,177.09642 71.710872,172.05473 71.776618,167.50646 C 71.861617,161.62587 74.514793,156.49169 79.188458,153.16375 C 80.812479,152.00735 86.91862,149.14064 92.757673,146.7933 L 103.37412,142.5254 L 103.63624,111.68043 L 103.89834,80.835453 L 121.7391,80.835453 L 139.57985,80.835453 L 139.57985,64.468477 L 139.57985,48.1015 L 164.87427,48.1015 L 190.16869,48.1015 L 190.16869,26.278865 L 190.16869,4.45623 L 221.9107,4.45623 L 253.65272,4.45623 L 253.65272,26.278865 L 253.65272,48.1015 L 278.94714,48.1015 L 304.24155,48.1015 L 304.24155,64.468477 L 304.24155,80.835453 L 322.57827,80.835453 L 340.915,80.835453 L 341.17711,111.74375 L 341.43923,142.65205 L 352.7558,147.42837 C 365.03298,152.61012 367.85519,154.66013 370.90732,160.6134 C 374.3259,167.28142 373.36761,170.49328 355.99056,210.60892 L 339.95132,247.63618 L 339.95132,297.73028 L 339.95132,347.82439 L 343.17512,347.14279 C 346.6642,346.40511 351.21131,344.8016 365.62479,339.2261 C 381.97643,332.90086 393.17972,333.40642 410.37892,341.24565 C 420.90958,346.04544 429.96431,348.6587 436.06449,348.6587 L 440.13705,348.6587 L 440.13705,370.48134 C 440.13705,395.4183 441.24082,393.23891 429.83514,390.8225 C 426.07857,390.02663 418.6595,387.34417 413.34834,384.86145 C 401.74639,379.4381 391.27966,377.00183 383.63197,377.94456 C 376.53108,378.81989 366.62964,381.91447 359.62009,385.44918 C 350.85882,389.86725 340.67623,392.30562 331.04382,392.2922 C 320.94062,392.27812 315.25825,390.882 303.58635,385.54607 C 290.21188,379.43179 284.62958,378.12125 274.09211,378.62174 C 267.06628,378.95545 263.62782,379.66559 258.61241,381.81877 C 239.08281,390.20308 234.54884,391.57905 224.88652,392.05389 C 213.67738,392.60474 207.10358,391.14592 193.79855,385.15498 C 182.05414,379.86676 176.426,378.44292 167.21062,378.42862 C 158.52939,378.41514 149.57027,380.83076 139.49397,385.90179 C 130.71031,390.32226 122.525,392.30695 113.15032,392.28931 C 102.90618,392.27004 95.050816,390.32205 83.068651,384.82963 C 73.518957,380.45221 62.832928,377.45935 56.753033,377.45935 C 50.409808,377.45935 39.587666,380.57954 29.544423,385.304 C 20.512332,389.55279 10.980839,392.25988 4.924275,392.29649 C 3.9705464,392.30225 3.6843525,387.38134 3.6843525,370.97731 z M 176.65725,112.08151 C 201.10178,101.98854 221.48963,93.73065 221.9636,93.73065 C 222.43758,93.73065 242.8871,101.98854 267.40697,112.08151 C 291.92684,122.17448 312.47735,130.43236 313.07475,130.43236 C 313.80378,130.43236 314.16093,126.35525 314.16093,118.03314 L 314.16093,105.63391 L 295.81008,105.63391 L 277.45923,105.63391 L 277.45923,89.762898 L 277.45923,73.891888 L 221.9107,73.891888 L 166.36218,73.891888 L 166.36218,89.740521 L 166.36218,105.58916 L 148.25931,105.85952 L 130.15644,106.12988 L 129.87792,118.28112 C 129.65946,127.81263 129.88111,130.43236 130.90604,130.43236 C 131.62469,130.43236 152.21273,122.17448 176.65725,112.08151 z "
     style="fill:black"
     id="path1929" />
</svg>
