<svg xmlns="http://www.w3.org/2000/svg" xmlns:xlink="http://www.w3.org/1999/xlink" version="1.1" x="0px" y="0px" viewBox="-11.75 -10.014 126 108.985" enable-background="new -11.75 -10.014 126 108.985" xml:space="preserve"><path d="M5,36.12h14.635c-1.315,1.744-2.096,3.88-2.096,6.236H7.865L5,40.365V36.12z"></path><path d="M27.962,34.727c-4.226,0-7.656,3.425-7.656,7.63c0,4.232,3.431,7.644,7.656,7.644c4.212,0,7.63-3.411,7.63-7.644  C35.592,38.151,32.174,34.727,27.962,34.727z M27.962,46.523c-2.312,0-4.187-1.861-4.187-4.167c0-2.292,1.875-4.153,4.187-4.153  c2.292,0,4.167,1.861,4.167,4.153C32.129,44.662,30.254,46.523,27.962,46.523z"></path><path d="M81.26,34.726c-4.229,0-7.66,3.43-7.66,7.63c0,4.23,3.431,7.64,7.66,7.64c4.21,0,7.641-3.41,7.641-7.64  C88.9,38.156,85.47,34.726,81.26,34.726z M81.26,46.526c-2.3,0-4.18-1.86-4.18-4.17c0-2.29,1.88-4.15,4.18-4.15  c2.29,0,4.16,1.86,4.16,4.15C85.42,44.666,83.55,46.526,81.26,46.526z"></path><path d="M99,20.841L93.461,4.18L84.73,0H67.31v36.12H36.27c1.31,1.75,2.1,3.88,2.1,6.25h32.46c0-5.75,4.67-10.4,10.43-10.4  c4.04,0,7.53,2.31,9.26,5.69c0.62,1.19,1.021,2.54,1.101,3.98c0.01,0.23,0.05,0.47,0.05,0.73H100V25L99,20.841z M72.22,20.841v-12.5  h18.461l4.16,12.5H72.22z"></path><polygon fill="none" points="72.22,20.841 72.22,8.341 90.681,8.341 94.841,20.841 "></polygon><rect x="1.5" y="0" width="63" height="33.652"></rect></svg>